# xmcd
#
# Track frame offsets: 
#        183
#        12495
#        36495
#        58608
#        68208
#        86283
#        108195
#        121233
#        136833
#        153658
#        177333
#        204433
#        221695
#        237633
#        249883
#        272433
#
# Disc length: 4062 seconds
#
# Revision: 2
# Processed by: cddbd v1.4PL0 Copyright (c) Steve Scherf et al.
# Submitted via: ExactAudioCopy v0.90a11
#
DISCID=de0fdc10
DTITLE=Ella Fitzgerald - For The Love Of Ella Fitzgerald CD2of2
DYEAR=1900
DGENRE=
TTITLE0=Misty
TTITLE1=Sophisticated Lady
TTITLE2=Midnight Sun
TTITLE3=Solitude
TTITLE4=How Long, How Long Blues
TTITLE5=I Loves You Porgy
TTITLE6=Summertime
TTITLE7=Mood Indigo
TTITLE8=Laura
TTITLE9=Stormy Weather
TTITLE10=Autumn In New York
TTITLE11=These Foolsih Things
TTITLE12=I Can't Get Started
TTITLE13=See See Rider
TTITLE14=I Love Paris
TTITLE15=Blues In The Night
EXTD=
EXTT0=
EXTT1=
EXTT2=
EXTT3=
EXTT4=
EXTT5=
EXTT6=
EXTT7=
EXTT8=
EXTT9=
EXTT10=
EXTT11=
EXTT12=
EXTT13=
EXTT14=
EXTT15=
PLAYORDER=
